<svg xmlns="http://www.w3.org/2000/svg" viewBox="0 0 23 23"><path d="M1 1h7v7h-7zM11 1h2v2h-1v1h-1v3h-1v2h-1v-6h1v-1h1zM15 1h7v7h-7zM2 2v5h5v-5zM16 2v5h5v-5zM3 3h3v3h-3zM13 3h1v3h-1zM17 3h3v3h-3zM12 6h1v1h-1zM11 7h1v2h-1zM13 7h1v1h-1zM1 9h1v1h-1zM3 9h5v1h-2v1h2v1h-1v1h-1v1h-4v-1h2v-1h-2v1h-1v-2h2zM10 9h1v1h-1zM12 9h1v1h2v-1h5v1h-3v2h-1v1h-2v2h-1v-2h-2v1h1v1h1v1h-1v1h-1v-2h-2v-1h1v-2h-1v-1h2v1h2v-1h-1zM4 10v1h1v-1zM8 10h1v1h-1zM20 10h2v1h-1v3h-1v-1h-2v-1h1v-1h1zM14 11v1h1v-1zM7 13h2v1h-2zM16 14h2v1h-2zM19 14h1v1h1v1h1v1h-1v1h-1v-1h-2v-2h1zM21 14h1v1h-1zM1 15h7v7h-7zM14 15h1v1h-1zM2 16v5h5v-5zM9 16h1v1h1v1h1v-1h1v1h1v-1h1v1h2v-1h1v1h1v1h1v2h-1v1h-1v-3h-2v1h1v2h-1v-1h-2v1h-1v-1h-2v1h-2v-1h1v-1h-1zM16 16h1v1h-1zM3 17h3v3h-3zM12 19v1h1v-1zM14 19v1h1v-1zM20 21h1v1h-1z"/></svg>